<?xml version="1.0" standalone="no"?><!DOCTYPE svg PUBLIC "-//W3C//DTD SVG 1.1//EN" "http://www.w3.org/Graphics/SVG/1.1/DTD/svg11.dtd"><svg class="icon" width="200px" height="200.00px" viewBox="0 0 1024 1024" version="1.1" xmlns="http://www.w3.org/2000/svg"><path d="M341.333333 213.333333a42.666667 42.666667 0 0 1 39.381334 26.24l213.333333 512a42.666667 42.666667 0 1 1-78.762667 32.853334L341.333333 366.933333l-173.952 417.493334a42.666667 42.666667 0 0 1-78.762666-32.853334l213.333333-512A42.666667 42.666667 0 0 1 341.333333 213.333333z" fill="#14181F" /><path d="M170.666667 597.333333a42.666667 42.666667 0 0 1 42.666666-42.666666h256a42.666667 42.666667 0 1 1 0 85.333333H213.333333a42.666667 42.666667 0 0 1-42.666666-42.666667zM896 469.333333a42.666667 42.666667 0 0 1 42.666667 42.666667v256a42.666667 42.666667 0 1 1-85.333334 0v-256a42.666667 42.666667 0 0 1 42.666667-42.666667z" fill="#14181F" /><path d="M768 554.666667a85.333333 85.333333 0 1 0 0 170.666666 85.333333 85.333333 0 0 0 0-170.666666z m-170.666667 85.333333a170.666667 170.666667 0 1 1 341.333334 0 170.666667 170.666667 0 0 1-341.333334 0z" fill="#14181F" /></svg>