<?xml version="1.0" standalone="no"?><!DOCTYPE svg PUBLIC "-//W3C//DTD SVG 1.1//EN" "http://www.w3.org/Graphics/SVG/1.1/DTD/svg11.dtd"><svg class="icon" width="200px" height="200.00px" viewBox="0 0 1024 1024" version="1.1" xmlns="http://www.w3.org/2000/svg"><path d="M835.626667 349.397333A42.666667 42.666667 0 0 1 853.333333 384v426.666667a42.666667 42.666667 0 0 1-85.333333 0v-367.488l-71.850667 23.978666a42.666667 42.666667 0 0 1-26.965333-80.981333l128-42.666667a42.666667 42.666667 0 0 1 38.4 5.888zM128 170.666667a42.666667 42.666667 0 0 1 42.666667 42.666666v256h256V213.333333a42.666667 42.666667 0 1 1 85.333333 0v597.333334a42.666667 42.666667 0 1 1-85.333333 0v-256H170.666667v256a42.666667 42.666667 0 1 1-85.333334 0V213.333333a42.666667 42.666667 0 0 1 42.666667-42.666666z" fill="#14181F" /></svg>