<?xml version="1.0" standalone="no"?><!DOCTYPE svg PUBLIC "-//W3C//DTD SVG 1.1//EN" "http://www.w3.org/Graphics/SVG/1.1/DTD/svg11.dtd"><svg class="icon" width="200px" height="200.00px" viewBox="0 0 1024 1024" version="1.1" xmlns="http://www.w3.org/2000/svg"><path d="M298.666667 810.666667a42.666667 42.666667 0 0 1 42.666666-42.666667h170.666667a42.666667 42.666667 0 1 1 0 85.333333H341.333333a42.666667 42.666667 0 0 1-42.666666-42.666666zM469.333333 213.333333a42.666667 42.666667 0 0 1 42.666667-42.666666h170.666667a42.666667 42.666667 0 1 1 0 85.333333h-170.666667a42.666667 42.666667 0 0 1-42.666667-42.666667z" fill="#14181F" /><path d="M609.066667 172.288a42.666667 42.666667 0 0 1 29.269333 52.778667l-170.666667 597.333333a42.666667 42.666667 0 1 1-82.048-23.466667l170.666667-597.333333a42.666667 42.666667 0 0 1 52.778667-29.312z" fill="#14181F" /></svg>