<?xml version="1.0" standalone="no"?><!DOCTYPE svg PUBLIC "-//W3C//DTD SVG 1.1//EN" "http://www.w3.org/Graphics/SVG/1.1/DTD/svg11.dtd"><svg class="icon" width="200px" height="200.00px" viewBox="0 0 1024 1024" version="1.1" xmlns="http://www.w3.org/2000/svg"><path d="M512 85.333333a42.666667 42.666667 0 0 1 42.666667 42.666667v768a42.666667 42.666667 0 1 1-85.333334 0V128a42.666667 42.666667 0 0 1 42.666667-42.666667z" fill="#14181F" /><path d="M353.834667 737.834667a42.666667 42.666667 0 0 1 60.330666 0L512 835.669333l97.834667-97.834666a42.666667 42.666667 0 0 1 60.330666 60.330666l-128 128a42.666667 42.666667 0 0 1-60.330666 0l-128-128a42.666667 42.666667 0 0 1 0-60.330666zM481.834667 97.834667a42.666667 42.666667 0 0 1 60.330666 0l128 128a42.666667 42.666667 0 0 1-60.330666 60.330666L512 188.330667 414.165333 286.165333a42.666667 42.666667 0 0 1-60.330666-60.330666l128-128z" fill="#14181F" /></svg>